<?xml version="1.0" standalone="no"?>
<!DOCTYPE svg PUBLIC "-//W3C//DTD SVG 20010904//EN"
 "http://www.w3.org/TR/2001/REC-SVG-20010904/DTD/svg10.dtd">
<svg version="1.0" xmlns="http://www.w3.org/2000/svg"
 width="260.000000pt" height="260.000000pt" viewBox="0 0 260.000000 260.000000"
 preserveAspectRatio="xMidYMid meet">
<metadata>
Created by potrace 1.11, written by Peter Selinger 2001-2013
</metadata>
<g transform="translate(0.000000,260.000000) scale(0.100000,-0.100000)"
fill="#000000" stroke="none">
<path d="M1105 2525 c-442 -73 -805 -362 -969 -773 -60 -149 -79 -247 -80
-417 -1 -202 11 -283 71 -448 127 -355 448 -652 822 -761 50 -15 204 -43 241
-45 218 -9 372 11 533 70 80 29 80 29 146 13 36 -9 77 -18 91 -20 14 -3 91
-21 171 -40 81 -19 149 -34 151 -34 4 0 -32 161 -37 168 -1 1 -102 25 -224 53
l-221 51 -45 -21 c-139 -65 -316 -100 -484 -96 -113 3 -140 7 -241 32 -135 33
-283 103 -395 187 -72 54 -209 199 -256 271 -122 187 -169 341 -174 570 -3
120 0 167 15 235 62 282 218 514 456 682 121 85 338 168 484 184 30 3 98 6
150 6 87 -1 121 -3 190 -17 14 -3 36 -7 49 -10 175 -33 390 -153 536 -300 140
-140 246 -327 286 -505 21 -92 24 -128 24 -270 -1 -118 -5 -161 -24 -234 -46
-176 -135 -342 -251 -469 -29 -32 -51 -60 -48 -62 2 -2 39 -12 81 -21 l78 -17
29 34 c109 127 230 364 255 499 3 14 11 57 18 96 22 114 20 294 -6 424 -67
337 -271 628 -572 818 -231 145 -573 212 -850 167z"/>
</g>
</svg>
